<svg width="22" height="22" viewBox="0 0 22 22" fill="none" xmlns="http://www.w3.org/2000/svg">
<path d="M16.6041 9.62358C17.0559 9.62358 17.4221 9.25738 17.4221 8.80564C17.4221 8.35391 17.0559 7.9877 16.6041 7.9877C16.1524 7.9877 15.7862 8.35391 15.7862 8.80564C15.7862 9.25738 16.1524 9.62358 16.6041 9.62358Z" fill="#2D3962"/>
<path d="M18.4854 1.85314H17.4221V1.0352C17.4221 0.583447 17.0559 0.217255 16.6041 0.217255C16.1524 0.217255 15.7862 0.583447 15.7862 1.0352V1.85314H12.0646V1.0352C12.0646 0.583447 11.6984 0.217255 11.2466 0.217255C10.7949 0.217255 10.4287 0.583447 10.4287 1.0352V1.85314H6.74795V1.0352C6.74795 0.583447 6.38175 0.217255 5.93 0.217255C5.47826 0.217255 5.11206 0.583447 5.11206 1.0352V1.85314H4.08964C2.28558 1.85314 0.817871 3.32085 0.817871 5.1249V17.8848C0.817871 19.6888 2.28558 21.1566 4.08964 21.1566H10.3469C10.7986 21.1566 11.1648 20.7904 11.1648 20.3386C11.1648 19.8869 10.7986 19.5207 10.3469 19.5207H4.08964C3.18761 19.5207 2.45375 18.7868 2.45375 17.8848V5.1249C2.45375 4.22288 3.18761 3.48902 4.08964 3.48902H5.11206V4.30696C5.11206 4.75871 5.47826 5.1249 5.93 5.1249C6.38175 5.1249 6.74795 4.75871 6.74795 4.30696V3.48902H10.4287V4.30696C10.4287 4.75871 10.7949 5.1249 11.2466 5.1249C11.6984 5.1249 12.0646 4.75871 12.0646 4.30696V3.48902H15.7862V4.30696C15.7862 4.75871 16.1524 5.1249 16.6041 5.1249C17.0559 5.1249 17.4221 4.75871 17.4221 4.30696V3.48902H18.4854C19.3874 3.48902 20.1213 4.22288 20.1213 5.1249V9.78717C20.1213 10.2389 20.4875 10.6051 20.9392 10.6051C21.391 10.6051 21.7572 10.2389 21.7572 9.78717V5.1249C21.7572 3.32085 20.2895 1.85314 18.4854 1.85314Z" fill="#2D3962"/>
<path d="M16.8086 11.2595C14.08 11.2595 11.8601 13.4794 11.8601 16.208C11.8601 18.9367 14.08 21.1566 16.8086 21.1566C19.5373 21.1566 21.7572 18.9367 21.7572 16.208C21.7572 13.4794 19.5373 11.2595 16.8086 11.2595ZM16.8086 19.5207C14.982 19.5207 13.496 18.0346 13.496 16.208C13.496 14.3814 14.982 12.8953 16.8086 12.8953C18.6352 12.8953 20.1213 14.3814 20.1213 16.208C20.1213 18.0346 18.6352 19.5207 16.8086 19.5207Z" fill="#2D3962"/>
<path d="M17.9946 15.3901H17.6266V14.5312C17.6266 14.0795 17.2604 13.7133 16.8086 13.7133C16.3569 13.7133 15.9907 14.0795 15.9907 14.5312V16.208C15.9907 16.6598 16.3569 17.0259 16.8086 17.0259H17.9946C18.4464 17.0259 18.8126 16.6598 18.8126 16.208C18.8126 15.7563 18.4464 15.3901 17.9946 15.3901Z" fill="#2D3962"/>
<path d="M13.0461 9.62358C13.4978 9.62358 13.864 9.25738 13.864 8.80564C13.864 8.35391 13.4978 7.9877 13.0461 7.9877C12.5944 7.9877 12.2281 8.35391 12.2281 8.80564C12.2281 9.25738 12.5944 9.62358 13.0461 9.62358Z" fill="#2D3962"/>
<path d="M9.48805 13.1816C9.93978 13.1816 10.306 12.8154 10.306 12.3637C10.306 11.912 9.93978 11.5457 9.48805 11.5457C9.03631 11.5457 8.6701 11.912 8.6701 12.3637C8.6701 12.8154 9.03631 13.1816 9.48805 13.1816Z" fill="#2D3962"/>
<path d="M5.93 9.62358C6.38174 9.62358 6.74794 9.25738 6.74794 8.80564C6.74794 8.35391 6.38174 7.9877 5.93 7.9877C5.47827 7.9877 5.11206 8.35391 5.11206 8.80564C5.11206 9.25738 5.47827 9.62358 5.93 9.62358Z" fill="#2D3962"/>
<path d="M5.93 13.1816C6.38174 13.1816 6.74794 12.8154 6.74794 12.3637C6.74794 11.912 6.38174 11.5457 5.93 11.5457C5.47827 11.5457 5.11206 11.912 5.11206 12.3637C5.11206 12.8154 5.47827 13.1816 5.93 13.1816Z" fill="#2D3962"/>
<path d="M5.93 16.7397C6.38174 16.7397 6.74794 16.3735 6.74794 15.9217C6.74794 15.47 6.38174 15.1038 5.93 15.1038C5.47827 15.1038 5.11206 15.47 5.11206 15.9217C5.11206 16.3735 5.47827 16.7397 5.93 16.7397Z" fill="#2D3962"/>
<path d="M9.48805 16.7397C9.93978 16.7397 10.306 16.3735 10.306 15.9217C10.306 15.47 9.93978 15.1038 9.48805 15.1038C9.03631 15.1038 8.6701 15.47 8.6701 15.9217C8.6701 16.3735 9.03631 16.7397 9.48805 16.7397Z" fill="#2D3962"/>
<path d="M9.48805 9.62358C9.93978 9.62358 10.306 9.25738 10.306 8.80564C10.306 8.35391 9.93978 7.9877 9.48805 7.9877C9.03631 7.9877 8.6701 8.35391 8.6701 8.80564C8.6701 9.25738 9.03631 9.62358 9.48805 9.62358Z" fill="#2D3962"/>
</svg>
